<svg width="56" height="56" viewBox="0 0 56 56" fill="none" xmlns="http://www.w3.org/2000/svg">
<path fill-rule="evenodd" clip-rule="evenodd" d="M55.5 28C55.5 12.82 43.1525 0.5 28 0.5L27.2306 0.510572C12.4059 0.918449 0.5 13.0773 0.5 28C0.5 43.1525 12.82 55.5 28 55.5C43.1525 55.5 55.5 43.1525 55.5 28ZM22.555 39C21.7575 38.175 21.7575 36.8825 22.5825 36.085L30.695 28L22.5825 19.915C21.7575 19.1175 21.7575 17.7975 22.555 17C23.38 16.175 24.6725 16.175 25.47 17L35.0675 26.5425C35.4525 26.9275 35.6725 27.45 35.6725 28C35.6725 28.55 35.4525 29.0725 35.0675 29.4575L25.47 39C25.085 39.4125 24.5625 39.605 24.04 39.605C23.49 39.605 22.9675 39.4125 22.555 39Z" fill="#2F4065"/>
</svg>
